<svg width="20" height="20" viewBox="0 0 20 20" fill="none" xmlns="http://www.w3.org/2000/svg"><path d="M18.333 6.042h-5a.63.63 0 0 1-.625-.625.63.63 0 0 1 .625-.625h5a.63.63 0 0 1 .625.625.63.63 0 0 1-.625.625ZM5 6.042H1.667a.63.63 0 0 1-.625-.625.63.63 0 0 1 .625-.625H5a.63.63 0 0 1 .625.625.63.63 0 0 1-.625.625Z" fill="#fff"/><path d="M8.333 8.958a3.55 3.55 0 0 1-3.541-3.541 3.55 3.55 0 0 1 3.541-3.542 3.55 3.55 0 0 1 3.542 3.542 3.55 3.55 0 0 1-3.542 3.541Zm0-5.833a2.29 2.29 0 0 0-2.291 2.292 2.29 2.29 0 0 0 2.291 2.291 2.29 2.29 0 0 0 2.292-2.291 2.29 2.29 0 0 0-2.292-2.292Zm10 12.083H15a.63.63 0 0 1-.625-.625.63.63 0 0 1 .625-.625h3.333a.63.63 0 0 1 .625.625.63.63 0 0 1-.625.625Zm-11.666 0h-5a.63.63 0 0 1-.625-.625.63.63 0 0 1 .625-.625h5a.63.63 0 0 1 .625.625.63.63 0 0 1-.625.625Z" fill="#fff"/><path d="M11.667 18.125a3.55 3.55 0 0 1-3.542-3.542 3.55 3.55 0 0 1 3.542-3.541 3.55 3.55 0 0 1 3.541 3.541 3.55 3.55 0 0 1-3.541 3.542Zm0-5.833a2.29 2.29 0 0 0-2.292 2.291 2.29 2.29 0 0 0 2.292 2.292 2.29 2.29 0 0 0 2.291-2.292 2.29 2.29 0 0 0-2.291-2.291Z" fill="#fff"/></svg>